<svg xmlns="http://www.w3.org/2000/svg" width="1400" height="940" viewBox="0 0 1400 940" role="img" aria-labelledby="title desc">
  <title id="title">Kastel Stack Wave 1 - Workflows, Kernel, and Deployment Stack</title>
  <desc id="desc">Diagram of first implementation workflows coordinated by the G-Loop kernel and implemented with TypeScript, SQL, n8n, Supabase, Stripe, and supporting apps.</desc>
  <defs>
    <style>
      .bg { fill: #f8fafc; }
      .card { fill: #ffffff; stroke: #111827; stroke-width: 2; rx: 12; }
      .wf { fill: #eef2ff; stroke: #3730a3; stroke-width: 1.8; rx: 10; }
      .kernel { fill: #ecfeff; stroke: #0f766e; stroke-width: 2.3; rx: 14; }
      .layer { fill: #f0fdf4; stroke: #166534; stroke-width: 1.8; rx: 10; }
      .tech { fill: #fffbeb; stroke: #b45309; stroke-width: 1.8; rx: 10; }
      .obs { fill: #f5f3ff; stroke: #6d28d9; stroke-width: 1.8; rx: 10; }
      .h1 { font: 700 30px Arial, sans-serif; fill: #111827; }
      .h2 { font: 700 18px Arial, sans-serif; fill: #111827; }
      .p { font: 14px Arial, sans-serif; fill: #111827; }
      .small { font: 12px Arial, sans-serif; fill: #374151; }
      .arrow { stroke: #111827; stroke-width: 2.1; fill: none; marker-end: url(#arrowHead); }
      .dashed { stroke-dasharray: 7 5; }
    </style>
    <marker id="arrowHead" markerWidth="10" markerHeight="8" refX="9" refY="4" orient="auto">
      <polygon points="0,0 10,4 0,8" fill="#111827"/>
    </marker>
  </defs>

  <rect class="bg" x="0" y="0" width="1400" height="940"/>
  <text class="h1" x="700" y="48" text-anchor="middle">Kastel Stack Wave 1 Implementation</text>
  <text class="small" x="700" y="72" text-anchor="middle">First workflows + G-Loop kernel + deployed language/app stack (Tier A MVP)</text>

  <!-- Workflows -->
  <rect class="card" x="40" y="110" width="330" height="470"/>
  <text class="h2" x="205" y="145" text-anchor="middle">Wave 1 Workflows</text>

  <rect class="wf" x="65" y="170" width="280" height="65"/>
  <text class="p" x="205" y="198" text-anchor="middle">1) Lead Qualification</text>
  <text class="small" x="205" y="218" text-anchor="middle">and Offer Routing</text>

  <rect class="wf" x="65" y="245" width="280" height="65"/>
  <text class="p" x="205" y="273" text-anchor="middle">2) Checkout -> Entitlements</text>
  <text class="small" x="205" y="293" text-anchor="middle">Sync + Reconciliation</text>

  <rect class="wf" x="65" y="320" width="280" height="65"/>
  <text class="p" x="205" y="348" text-anchor="middle">3) Coaching Credits + Booking</text>
  <text class="small" x="205" y="368" text-anchor="middle">+ Reminders</text>

  <rect class="wf" x="65" y="395" width="280" height="65"/>
  <text class="p" x="205" y="423" text-anchor="middle">4) At-Risk Retention</text>
  <text class="small" x="205" y="443" text-anchor="middle">Detection + Intervention</text>

  <rect class="wf" x="65" y="470" width="280" height="65"/>
  <text class="p" x="205" y="498" text-anchor="middle">5) Weekly KPI Snapshot</text>
  <text class="small" x="205" y="518" text-anchor="middle">and Founder Ops Dashboard</text>

  <!-- Kernel -->
  <rect class="kernel" x="420" y="110" width="560" height="470"/>
  <text class="h2" x="700" y="145" text-anchor="middle">Kastel Kernel (Control Plane)</text>

  <rect class="layer" x="450" y="170" width="240" height="80"/>
  <text class="p" x="570" y="202" text-anchor="middle">G-Loop Orchestrator</text>
  <text class="small" x="570" y="224" text-anchor="middle">Mission/Run stages + gates</text>

  <rect class="layer" x="710" y="170" width="240" height="80"/>
  <text class="p" x="830" y="202" text-anchor="middle">Psi Governor</text>
  <text class="small" x="830" y="224" text-anchor="middle">Budgets, caps, anti-runaway</text>

  <rect class="layer" x="450" y="265" width="240" height="80"/>
  <text class="p" x="570" y="297" text-anchor="middle">Safety Gate</text>
  <text class="small" x="570" y="319" text-anchor="middle">Auto / Draft / Escalate</text>

  <rect class="layer" x="710" y="265" width="240" height="80"/>
  <text class="p" x="830" y="297" text-anchor="middle">Policy + Risk Checks</text>
  <text class="small" x="830" y="319" text-anchor="middle">Money/legal/claim controls</text>

  <rect class="layer" x="450" y="360" width="500" height="85"/>
  <text class="p" x="700" y="392" text-anchor="middle">Action Intents</text>
  <text class="small" x="700" y="414" text-anchor="middle">draft -> pending_approval -> approved -> executed</text>
  <text class="small" x="700" y="432" text-anchor="middle">Kernel decides; executor runs only approved intents</text>

  <rect class="layer" x="450" y="460" width="500" height="95"/>
  <text class="p" x="700" y="492" text-anchor="middle">Audit + Proof</text>
  <text class="small" x="700" y="514" text-anchor="middle">events append-only | dry-run | rollback test | delayed re-check</text>
  <text class="small" x="700" y="532" text-anchor="middle">Bank workflows only after portability evidence</text>

  <!-- Apps/Systems -->
  <rect class="card" x="1030" y="110" width="330" height="470"/>
  <text class="h2" x="1195" y="145" text-anchor="middle">External Apps / Systems</text>

  <rect class="tech" x="1055" y="170" width="280" height="56"/>
  <text class="p" x="1195" y="204" text-anchor="middle">Websites + Forms + Substack</text>

  <rect class="tech" x="1055" y="236" width="280" height="56"/>
  <text class="p" x="1195" y="270" text-anchor="middle">Stripe Checkout + Webhooks</text>

  <rect class="tech" x="1055" y="302" width="280" height="56"/>
  <text class="p" x="1195" y="336" text-anchor="middle">Podia + Email + Discord + Zoom</text>

  <rect class="tech" x="1055" y="368" width="280" height="56"/>
  <text class="p" x="1195" y="402" text-anchor="middle">n8n (MVP Orchestration Adapter)</text>

  <rect class="tech" x="1055" y="434" width="280" height="56"/>
  <text class="p" x="1195" y="468" text-anchor="middle">Resend/Postmark (optional tx email)</text>

  <rect class="obs" x="1055" y="500" width="280" height="56"/>
  <text class="p" x="1195" y="534" text-anchor="middle">Sentry + PostHog (observability)</text>

  <!-- Deployment stack -->
  <rect class="card" x="40" y="640" width="1320" height="250"/>
  <text class="h2" x="700" y="676" text-anchor="middle">Deployment Stack (Languages + Runtime Apps)</text>

  <rect class="tech" x="70" y="700" width="250" height="70"/>
  <text class="p" x="195" y="730" text-anchor="middle">TypeScript</text>
  <text class="small" x="195" y="750" text-anchor="middle">Next.js UI + Kernel APIs/workers</text>

  <rect class="tech" x="340" y="700" width="250" height="70"/>
  <text class="p" x="465" y="730" text-anchor="middle">SQL</text>
  <text class="small" x="465" y="750" text-anchor="middle">Supabase Postgres + RLS + views</text>

  <rect class="tech" x="610" y="700" width="250" height="70"/>
  <text class="p" x="735" y="730" text-anchor="middle">JSON Schema</text>
  <text class="small" x="735" y="750" text-anchor="middle">Domain contracts + payload validation</text>

  <rect class="tech" x="880" y="700" width="220" height="70"/>
  <text class="p" x="990" y="730" text-anchor="middle">YAML</text>
  <text class="small" x="990" y="750" text-anchor="middle">CI/CD + workflow config</text>

  <rect class="tech" x="1120" y="700" width="210" height="70"/>
  <text class="p" x="1225" y="730" text-anchor="middle">Rego (optional)</text>
  <text class="small" x="1225" y="750" text-anchor="middle">OPA policy-as-code</text>

  <rect class="layer" x="70" y="785" width="1260" height="80"/>
  <text class="p" x="700" y="817" text-anchor="middle">Runtime: Vercel (Next.js) + Supabase (DB/Auth) + n8n (executor) + Stripe (payments)</text>
  <text class="small" x="700" y="840" text-anchor="middle">Control rule: Kernel decides intents and gates; n8n executes approved actions; all steps logged to append-only events.</text>

  <!-- Flow arrows -->
  <path class="arrow" d="M370 345 L420 345"/>
  <path class="arrow" d="M980 345 L1030 345"/>
  <path class="arrow" d="M1030 560 L980 560"/>
  <path class="arrow dashed" d="M700 580 L700 640"/>
</svg>
